<svg width="64" height="64" viewBox="0 0 64 64" fill="none" xmlns="http://www.w3.org/2000/svg">
<path d="M18.6666 21.3333V16C18.6666 13.8783 19.5094 11.8434 21.0097 10.3431C22.51 8.84286 24.5449 8 26.6666 8M21.3333 32L23.9999 56M42.6666 32L39.9999 56M18.6666 56H45.3333M13.3333 21.3333H50.6666L49.0106 27.96C48.7222 29.1138 48.0564 30.1381 47.119 30.8701C46.1817 31.6021 45.0266 31.9998 43.8372 32H20.1626C18.9733 31.9998 17.8181 31.6021 16.8808 30.8701C15.9434 30.1381 15.2777 29.1138 14.9893 27.96L13.3333 21.3333Z" stroke="#D84646" stroke-width="3" stroke-linecap="round" stroke-linejoin="round"/>
</svg>
