<svg width="52" height="52" viewBox="0 0 52 52" fill="none" xmlns="http://www.w3.org/2000/svg">
<path d="M15.1668 17.3333V13C15.1668 11.2761 15.8516 9.62279 17.0706 8.40381C18.2896 7.18482 19.9429 6.5 21.6668 6.5M17.3335 26L19.5002 45.5M34.6668 26L32.5002 45.5M15.1668 45.5H36.8335M10.8335 17.3333H41.1668L39.8213 22.7175C39.587 23.655 39.046 24.4872 38.2844 25.082C37.5228 25.6767 36.5843 25.9999 35.618 26H16.3823C15.416 25.9999 14.4775 25.6767 13.7159 25.082C12.9543 24.4872 12.4133 23.655 12.179 22.7175L10.8335 17.3333Z" stroke="#191919" stroke-width="2" stroke-linecap="round" stroke-linejoin="round"/>
</svg>
