<svg width="52" height="52" viewBox="0 0 52 52" fill="none" xmlns="http://www.w3.org/2000/svg">
<path d="M42.2496 27.24L25.9996 43.334L9.74959 27.24C8.67776 26.197 7.83349 24.9433 7.26995 23.558C6.70641 22.1727 6.43581 20.6857 6.47519 19.1907C6.51457 17.6956 6.86308 16.2249 7.49877 14.8712C8.13446 13.5175 9.04355 12.31 10.1688 11.3249C11.2941 10.3398 12.6111 9.59829 14.037 9.14717C15.4629 8.69605 16.9668 8.54506 18.4539 8.7037C19.941 8.86233 21.3792 9.32717 22.6778 10.0689C23.9765 10.8107 25.1075 11.8133 25.9996 13.0136C26.8956 11.822 28.0279 10.8282 29.3256 10.0943C30.6234 9.36039 32.0587 8.90227 33.5416 8.74859C35.0246 8.59491 36.5233 8.74897 37.9439 9.20114C39.3646 9.65331 40.6767 10.3939 41.798 11.3764C42.9193 12.359 43.8257 13.5624 44.4605 14.9114C45.0953 16.2604 45.4449 17.7259 45.4873 19.2162C45.5297 20.7065 45.264 22.1894 44.7069 23.5723C44.1498 24.9552 43.3132 26.2082 42.2496 27.253M25.9997 13.0005L18.8648 20.1353C18.4587 20.5417 18.2305 21.0927 18.2305 21.6672C18.2305 22.2417 18.4587 22.7927 18.8648 23.199L20.0413 24.3755C21.5363 25.8705 23.963 25.8705 25.458 24.3755L27.6247 22.2088C28.9176 20.9159 30.6712 20.1896 32.4997 20.1896C34.3282 20.1896 36.0817 20.9159 37.3747 22.2088L42.2497 27.0838M27.0833 33.5838L31.4167 37.9172M32.5 28.1672L36.8333 32.5005" stroke="#191919" stroke-width="2" stroke-linecap="round" stroke-linejoin="round"/>
</svg>
