<svg width="64" height="64" viewBox="0 0 64 64" fill="none" xmlns="http://www.w3.org/2000/svg">
<path d="M32 18.6667C30.5855 18.6667 29.229 18.1048 28.2288 17.1046C27.2286 16.1044 26.6667 14.7478 26.6667 13.3333C26.6667 11.9188 27.2286 10.5623 28.2288 9.5621C29.229 8.5619 30.5855 8 32 8C33.4145 8 34.771 8.5619 35.7712 9.5621C36.7714 10.5623 37.3333 11.9188 37.3333 13.3333C37.3333 14.7478 36.7714 16.1044 35.7712 17.1046C34.771 18.1048 33.4145 18.6667 32 18.6667ZM32 18.6667V29.3333M32 29.3333C34.1217 29.3333 36.1566 30.1762 37.6569 31.6765C39.1571 33.1768 40 35.2116 40 37.3333C40 39.4551 39.1571 41.4899 37.6569 42.9902C36.1566 44.4905 34.1217 45.3333 32 45.3333C29.8783 45.3333 27.8434 44.4905 26.3431 42.9902C24.8429 41.4899 24 39.4551 24 37.3333C24 35.2116 24.8429 33.1768 26.3431 31.6765C27.8434 30.1762 29.8783 29.3333 32 29.3333ZM17.8672 47.4668L25.3339 42.1335M46.1333 47.4668L38.6667 42.1335M8 50.6667C8 52.0812 8.5619 53.4377 9.5621 54.4379C10.5623 55.4381 11.9188 56 13.3333 56C14.7478 56 16.1044 55.4381 17.1046 54.4379C18.1048 53.4377 18.6667 52.0812 18.6667 50.6667C18.6667 49.2522 18.1048 47.8956 17.1046 46.8954C16.1044 45.8952 14.7478 45.3333 13.3333 45.3333C11.9188 45.3333 10.5623 45.8952 9.5621 46.8954C8.5619 47.8956 8 49.2522 8 50.6667ZM45.3333 50.6667C45.3333 52.0812 45.8952 53.4377 46.8954 54.4379C47.8956 55.4381 49.2522 56 50.6667 56C52.0812 56 53.4377 55.4381 54.4379 54.4379C55.4381 53.4377 56 52.0812 56 50.6667C56 49.2522 55.4381 47.8956 54.4379 46.8954C53.4377 45.8952 52.0812 45.3333 50.6667 45.3333C49.2522 45.3333 47.8956 45.8952 46.8954 46.8954C45.8952 47.8956 45.3333 49.2522 45.3333 50.6667Z" stroke="#191919" stroke-width="2.5" stroke-linecap="round" stroke-linejoin="round"/>
</svg>
