<svg width="52" height="52" viewBox="0 0 52 52" fill="none" xmlns="http://www.w3.org/2000/svg">
<path d="M17.3333 45.5V43.3333C17.3333 42.1841 17.7899 41.0819 18.6025 40.2692C19.4152 39.4565 20.5174 39 21.6667 39H30.3333C31.4826 39 32.5848 39.4565 33.3975 40.2692C34.2101 41.0819 34.6667 42.1841 34.6667 43.3333V45.5M36.8333 21.6667H41.1667C42.3159 21.6667 43.4181 22.1232 44.2308 22.9359C45.0435 23.7485 45.5 24.8507 45.5 26V28.1667M6.5 28.1667V26C6.5 24.8507 6.95655 23.7485 7.7692 22.9359C8.58186 22.1232 9.68406 21.6667 10.8333 21.6667H15.1667M21.6667 28.1667C21.6667 29.3159 22.1232 30.4181 22.9359 31.2308C23.7485 32.0435 24.8507 32.5 26 32.5C27.1493 32.5 28.2515 32.0435 29.0641 31.2308C29.8768 30.4181 30.3333 29.3159 30.3333 28.1667C30.3333 27.0174 29.8768 25.9152 29.0641 25.1025C28.2515 24.2899 27.1493 23.8333 26 23.8333C24.8507 23.8333 23.7485 24.2899 22.9359 25.1025C22.1232 25.9152 21.6667 27.0174 21.6667 28.1667ZM32.5 10.8333C32.5 11.9826 32.9565 13.0848 33.7692 13.8975C34.5819 14.7101 35.6841 15.1667 36.8333 15.1667C37.9826 15.1667 39.0848 14.7101 39.8975 13.8975C40.7101 13.0848 41.1667 11.9826 41.1667 10.8333C41.1667 9.68406 40.7101 8.58186 39.8975 7.7692C39.0848 6.95655 37.9826 6.5 36.8333 6.5C35.6841 6.5 34.5819 6.95655 33.7692 7.7692C32.9565 8.58186 32.5 9.68406 32.5 10.8333ZM10.8333 10.8333C10.8333 11.9826 11.2899 13.0848 12.1025 13.8975C12.9152 14.7101 14.0174 15.1667 15.1667 15.1667C16.3159 15.1667 17.4181 14.7101 18.2308 13.8975C19.0435 13.0848 19.5 11.9826 19.5 10.8333C19.5 9.68406 19.0435 8.58186 18.2308 7.7692C17.4181 6.95655 16.3159 6.5 15.1667 6.5C14.0174 6.5 12.9152 6.95655 12.1025 7.7692C11.2899 8.58186 10.8333 9.68406 10.8333 10.8333Z" stroke="#191919" stroke-width="2" stroke-linecap="round" stroke-linejoin="round"/>
</svg>
