<svg width="52" height="52" viewBox="0 0 52 52" fill="none" xmlns="http://www.w3.org/2000/svg">
<path d="M26 15.1667C24.8507 15.1667 23.7485 14.7101 22.9359 13.8975C22.1232 13.0848 21.6667 11.9826 21.6667 10.8333C21.6667 9.68406 22.1232 8.58186 22.9359 7.7692C23.7485 6.95655 24.8507 6.5 26 6.5C27.1493 6.5 28.2515 6.95655 29.0641 7.7692C29.8768 8.58186 30.3333 9.68406 30.3333 10.8333C30.3333 11.9826 29.8768 13.0848 29.0641 13.8975C28.2515 14.7101 27.1493 15.1667 26 15.1667ZM26 15.1667V23.8333M26 23.8333C27.7239 23.8333 29.3772 24.5182 30.5962 25.7371C31.8152 26.9561 32.5 28.6094 32.5 30.3333C32.5 32.0572 31.8152 33.7105 30.5962 34.9295C29.3772 36.1485 27.7239 36.8333 26 36.8333C24.2761 36.8333 22.6228 36.1485 21.4038 34.9295C20.1848 33.7105 19.5 32.0572 19.5 30.3333C19.5 28.6094 20.1848 26.9561 21.4038 25.7371C22.6228 24.5182 24.2761 23.8333 26 23.8333ZM14.5171 38.5668L20.5838 34.2334M37.4833 38.5668L31.4167 34.2334M6.5 41.1667C6.5 42.3159 6.95655 43.4181 7.7692 44.2308C8.58186 45.0435 9.68406 45.5 10.8333 45.5C11.9826 45.5 13.0848 45.0435 13.8975 44.2308C14.7101 43.4181 15.1667 42.3159 15.1667 41.1667C15.1667 40.0174 14.7101 38.9152 13.8975 38.1025C13.0848 37.2899 11.9826 36.8333 10.8333 36.8333C9.68406 36.8333 8.58186 37.2899 7.7692 38.1025C6.95655 38.9152 6.5 40.0174 6.5 41.1667ZM36.8333 41.1667C36.8333 42.3159 37.2899 43.4181 38.1025 44.2308C38.9152 45.0435 40.0174 45.5 41.1667 45.5C42.3159 45.5 43.4181 45.0435 44.2308 44.2308C45.0435 43.4181 45.5 42.3159 45.5 41.1667C45.5 40.0174 45.0435 38.9152 44.2308 38.1025C43.4181 37.2899 42.3159 36.8333 41.1667 36.8333C40.0174 36.8333 38.9152 37.2899 38.1025 38.1025C37.2899 38.9152 36.8333 40.0174 36.8333 41.1667Z" stroke="#191919" stroke-width="2" stroke-linecap="round" stroke-linejoin="round"/>
</svg>
