<svg width="64" height="64" viewBox="0 0 64 64" fill="none" xmlns="http://www.w3.org/2000/svg">
<path d="M21.3333 18.6667V13.3333C21.3333 11.9188 21.8952 10.5623 22.8954 9.5621C23.8956 8.5619 25.2522 8 26.6667 8H37.3333C38.7478 8 40.1044 8.5619 41.1046 9.5621C42.1048 10.5623 42.6667 11.9188 42.6667 13.3333V18.6667M32 32V32.0267M8 34.6667C15.4442 38.4178 23.6641 40.3718 32 40.3718C40.3359 40.3718 48.5558 38.4178 56 34.6667M8 24C8 22.5855 8.5619 21.229 9.5621 20.2288C10.5623 19.2286 11.9188 18.6667 13.3333 18.6667H50.6667C52.0812 18.6667 53.4377 19.2286 54.4379 20.2288C55.4381 21.229 56 22.5855 56 24V48C56 49.4145 55.4381 50.771 54.4379 51.7712C53.4377 52.7714 52.0812 53.3333 50.6667 53.3333H13.3333C11.9188 53.3333 10.5623 52.7714 9.5621 51.7712C8.5619 50.771 8 49.4145 8 48V24Z" stroke="#191919" stroke-width="2.5" stroke-linecap="round" stroke-linejoin="round"/>
</svg>
