<svg width="52" height="52" viewBox="0 0 52 52" fill="none" xmlns="http://www.w3.org/2000/svg">
<path d="M17.3333 15.1667V10.8333C17.3333 9.68406 17.7899 8.58186 18.6025 7.7692C19.4152 6.95655 20.5174 6.5 21.6667 6.5H30.3333C31.4826 6.5 32.5848 6.95655 33.3975 7.7692C34.2101 8.58186 34.6667 9.68406 34.6667 10.8333V15.1667M26 26V26.0217M6.5 28.1667C12.5484 31.2145 19.2271 32.8021 26 32.8021C32.7729 32.8021 39.4516 31.2145 45.5 28.1667M6.5 19.5C6.5 18.3507 6.95655 17.2485 7.7692 16.4359C8.58186 15.6232 9.68406 15.1667 10.8333 15.1667H41.1667C42.3159 15.1667 43.4181 15.6232 44.2308 16.4359C45.0435 17.2485 45.5 18.3507 45.5 19.5V39C45.5 40.1493 45.0435 41.2515 44.2308 42.0641C43.4181 42.8768 42.3159 43.3333 41.1667 43.3333H10.8333C9.68406 43.3333 8.58186 42.8768 7.7692 42.0641C6.95655 41.2515 6.5 40.1493 6.5 39V19.5Z" stroke="#191919" stroke-width="2" stroke-linecap="round" stroke-linejoin="round"/>
</svg>
