<svg width="64" height="64" viewBox="0 0 64 64" fill="none" xmlns="http://www.w3.org/2000/svg">
<path d="M51.9995 33.5258L31.9995 53.3338L11.9995 33.5258C10.6803 32.2421 9.64121 30.6992 8.94763 28.9942C8.25404 27.2892 7.921 25.459 7.96947 23.619C8.01794 21.7789 8.44687 19.9688 9.22925 18.3027C10.0116 16.6366 11.1305 15.1505 12.5155 13.938C13.9004 12.7256 15.5214 11.813 17.2763 11.2578C19.0313 10.7025 20.8822 10.5167 22.7125 10.7119C24.5428 10.9072 26.3128 11.4793 27.9112 12.3922C29.5095 13.3052 30.9015 14.5391 31.9995 16.0165C33.1023 14.5499 34.4959 13.3267 36.0931 12.4234C37.6903 11.5202 39.4568 10.9563 41.282 10.7672C43.1072 10.578 44.9517 10.7677 46.7002 11.3242C48.4487 11.8807 50.0636 12.7921 51.4436 14.0014C52.8237 15.2107 53.9393 16.6919 54.7206 18.3522C55.5019 20.0125 55.9321 21.8162 55.9843 23.6504C56.0365 25.4846 55.7095 27.3098 55.0239 29.0118C54.3382 30.7138 53.3086 32.256 51.9995 33.5418M31.9996 16.0003L23.2183 24.7817C22.7183 25.2817 22.4375 25.9599 22.4375 26.667C22.4375 27.3741 22.7183 28.0523 23.2183 28.5523L24.6663 30.0003C26.5063 31.8403 29.4929 31.8403 31.3329 30.0003L33.9996 27.3337C35.5909 25.7424 37.7492 24.8484 39.9996 24.8484C42.25 24.8484 44.4083 25.7424 45.9996 27.3337L51.9996 33.3337M33.3333 41.3337L38.6667 46.667M40 34.667L45.3333 40.0003" stroke="#191919" stroke-width="2.5" stroke-linecap="round" stroke-linejoin="round"/>
</svg>
