<svg width="52" height="52" viewBox="0 0 52 52" fill="none" xmlns="http://www.w3.org/2000/svg">
<path d="M38.031 36.2914C34.9836 33.2443 30.8506 31.5325 26.5412 31.5325C22.2317 31.5325 18.0988 33.2443 15.0514 36.2914M39.0004 8.24164C36.0146 6.51781 32.4663 6.05066 29.136 6.94295C25.8058 7.83525 22.9664 10.0139 21.2424 12.9996L43.7584 25.9996C45.4823 23.0138 45.9494 19.4655 45.0571 16.1353C44.1648 12.805 41.9862 9.9656 39.0004 8.24164ZM39.0004 8.24164C41.0739 9.43764 39.8451 15.4481 36.2528 21.6665M39.0004 8.24164C36.9269 7.04564 32.3376 11.1148 28.7475 17.3331M32.5 19.4997L26 30.7577M6.5 41.7081C7.17447 41.3728 7.91374 41.188 8.66667 41.1665C9.51057 41.1488 10.3461 41.3368 11.1011 41.7143C11.8561 42.0918 12.5078 42.6474 13 43.3331C13.4922 44.0189 14.1439 44.5745 14.8989 44.952C15.6539 45.3295 16.4894 45.5175 17.3333 45.4998C18.1772 45.5175 19.0128 45.3295 19.7677 44.952C20.5227 44.5745 21.1745 44.0189 21.6667 43.3331C22.1589 42.6474 22.8106 42.0918 23.5656 41.7143C24.3206 41.3368 25.1561 41.1488 26 41.1665C26.8439 41.1488 27.6794 41.3368 28.4344 41.7143C29.1894 42.0918 29.8411 42.6474 30.3333 43.3331C30.8255 44.0189 31.4773 44.5745 32.2323 44.952C32.9872 45.3295 33.8228 45.5175 34.6667 45.4998C35.5106 45.5175 36.3461 45.3295 37.1011 44.952C37.8561 44.5745 38.5078 44.0189 39 43.3331C39.4922 42.6474 40.1439 42.0918 40.8989 41.7143C41.6539 41.3368 42.4894 41.1488 43.3333 41.1665C44.0863 41.188 44.8255 41.3728 45.5 41.7081" stroke="#191919" stroke-width="2" stroke-linecap="round" stroke-linejoin="round"/>
</svg>
