<svg width="64" height="64" viewBox="0 0 64 64" fill="none" xmlns="http://www.w3.org/2000/svg">
<path d="M46.8074 44.6663C43.0567 40.9161 37.97 38.8092 32.6661 38.8092C27.3621 38.8092 22.2754 40.9161 18.5247 44.6663M48.0005 10.1436C44.3257 8.02192 39.9585 7.44697 35.8598 8.54517C31.761 9.64338 28.2663 12.3248 26.1445 15.9996L53.8565 31.9996C55.9782 28.3247 56.5531 23.9575 55.4549 19.8588C54.3567 15.76 51.6753 12.2654 48.0005 10.1436ZM48.0005 10.1436C50.5525 11.6156 49.0402 19.0131 44.6188 26.6664M48.0005 10.1436C45.4485 8.67156 39.8002 13.6798 35.3815 21.3331M40 23.9997L32 37.8557M8 51.3331C8.83011 50.9204 9.73998 50.6929 10.6667 50.6664C11.7053 50.6447 12.7337 50.8761 13.6629 51.3407C14.5921 51.8053 15.3942 52.4891 16 53.3331C16.6058 54.1771 17.4079 54.8609 18.3371 55.3255C19.2663 55.7901 20.2947 56.0215 21.3333 55.9998C22.372 56.0215 23.4003 55.7901 24.3295 55.3255C25.2587 54.8609 26.0609 54.1771 26.6667 53.3331C27.2725 52.4891 28.0746 51.8053 29.0038 51.3407C29.933 50.8761 30.9613 50.6447 32 50.6664C33.0387 50.6447 34.067 50.8761 34.9962 51.3407C35.9254 51.8053 36.7275 52.4891 37.3333 53.3331C37.9391 54.1771 38.7413 54.8609 39.6705 55.3255C40.5997 55.7901 41.628 56.0215 42.6667 55.9998C43.7053 56.0215 44.7337 55.7901 45.6629 55.3255C46.5921 54.8609 47.3942 54.1771 48 53.3331C48.6058 52.4891 49.4079 51.8053 50.3371 51.3407C51.2663 50.8761 52.2947 50.6447 53.3333 50.6664C54.26 50.6929 55.1699 50.9204 56 51.3331" stroke="#191919" stroke-width="2.5" stroke-linecap="round" stroke-linejoin="round"/>
</svg>
